<svg xmlns="http://www.w3.org/2000/svg" id="Layer_1" data-name="Layer 1" viewBox="0 0 724.8 356.17"><defs><style>.cls-1{fill:#e27c17;}.cls-2{fill:#ff9d27;}.cls-3{fill:#3e4347;}.cls-4{fill:#8a959b;}</style></defs><title>logonhac</title><path d="M546.9,660.56v-252c0-2.47,1.23-3.71,3.71-3.71h12.6a4.08,4.08,0,0,1,4.07,3L611.75,516a1.16,1.16,0,0,0,1.11.74A1.18,1.18,0,0,0,614,516l44.47-108.21a4.08,4.08,0,0,1,4.08-3h12.6c2.46,0,3.7,1.24,3.7,3.71v252c0,2.47-1.24,3.7-3.7,3.7H662.89c-2.48,0-3.71-1.23-3.71-3.7V454.9c0-.75-.25-1.12-.74-1.12a1.18,1.18,0,0,0-1.11.74l-40,95.61c-.74,2-2,3-3.71,3a4.06,4.06,0,0,1-4.07-3l-41.14-95.61a1.19,1.19,0,0,0-1.11-.74c-.5,0-.74.37-.74,1.12V660.56c0,2.47-1.24,3.7-3.7,3.7H550.61C548.13,664.26,546.9,663,546.9,660.56Z" transform="translate(-546.9 -362.6)"/><path d="M740,648.14q-16.68-19.08-16.68-50.95V408.58q0-3.7,3.71-3.71h12.23c2.46,0,3.7,1.24,3.7,3.71V599.41q0,22.61,11.3,36.5t29.83,13.9q18.53,0,30.21-13.9t11.67-36.5V408.58q0-3.7,3.7-3.71h12.23q3.71,0,3.71,3.71V597.19q0,31.5-17.05,50.77t-44.47,19.27Q756.63,667.23,740,648.14Z" transform="translate(-546.9 -362.6)"/><path d="M897.26,649.25q-16.5-18-16.49-46.87v-8.15q0-3.71,3.7-3.71h11.86q3.7,0,3.71,3.71v7.41q0,21.87,11.11,35.2a35.48,35.48,0,0,0,28.54,13.34,37,37,0,0,0,28.9-13q11.48-13,11.49-33.72,0-13.71-5.37-23.72a61.5,61.5,0,0,0-13.9-17.41q-8.53-7.41-27.42-21.49a365.56,365.56,0,0,1-29.28-23.72,77.45,77.45,0,0,1-16.86-22.79q-6.48-13.16-6.48-31.31,0-28.53,15.93-44.84t41.13-16.3q27,0,43.17,18.15t16.12,47.8v9.27c0,2.47-1.24,3.7-3.7,3.7H981.56q-3.7,0-3.71-3.7v-9.27q0-21.86-11.11-35.38T937.83,419q-16.67,0-27.23,11.67T900,463.42q0,12.6,4.44,21.86a59.87,59.87,0,0,0,13.34,17.6q8.89,8.34,26.31,21.31,21.87,16.3,32.8,26.31a72.79,72.79,0,0,1,16.67,21.86q5.74,11.86,5.75,28.54,0,30-16.49,48.17t-42.8,18.16Q913.74,667.23,897.26,649.25Z" transform="translate(-546.9 -362.6)"/><path d="M1167.76,650.37q-16.48-16.86-16.49-45V463.05q0-27.8,16.49-44.47t43.54-16.67q27.42,0,43.91,16.67t16.5,44.47v7a4,4,0,0,1-1.12,3,3.56,3.56,0,0,1-2.59,1.11l-12.23.75q-3.7,0-3.7-3.71v-9.26q0-19.28-11.12-30.95t-29.65-11.67q-18.15,0-29.27,11.67t-11.12,30.95V606.82q0,19.27,11.12,31.13t29.27,11.86q18.15,0,29.46-11.86t11.31-31.13V598.3c0-2.46,1.23-3.7,3.7-3.7l12.23.74c2.47,0,3.71,1.24,3.71,3.7v6.3q0,28.17-16.5,45t-43.91,16.86Q1184.26,667.23,1167.76,650.37Z" transform="translate(-546.9 -362.6)"/><path class="cls-1" d="M1065.71,548.8c-11.12.7-22.16,2.83-31.59,14.08-21.45,25.58,18.68,34-9.06,66.47-9.93,11.61-17.77,24.17-18.14,38.37-.95,36.1,29,53.19,66.64,50.84s68.59-23.28,69.53-59.37c.5-18.81-16.41-34.47-23.1-47.37-8.64-16.67,17.42-35,2.18-47.74a5.34,5.34,0,0,0-3.67-1.59c-5.28.33-6.74,14.08-15.62,14.64-3.24.2-7.47-1.35-13.22-6-8.75-7-4.25-23.41-11.63-22.95C1074,548.49,1069.83,548.55,1065.71,548.8Zm-.28,10.59c1.94-.12,3.89-.19,6-.27l1.42-.06c0,.21.08.42.1.61,1,5.72,2.6,14.34,9.72,20,7.34,5.86,13.68,8.41,20,8a19.31,19.31,0,0,0,11.18-4.45l-.6,1.39c-3.75,8.71-8.91,20.64-2.67,32.69a117.72,117.72,0,0,0,8.6,13.32c6.41,9,13.67,19.3,13.41,29.17-.35,13.81-5.93,25.11-16.57,33.6-10.4,8.31-25.35,13.48-42.11,14.52s-31.48-2.24-41.48-9.28c-10.22-7.19-15.22-17.83-14.87-31.63.25-9.47,5-19.1,15.34-31.24,19.3-22.6,12.6-38.44,8.18-48.92-3.47-8.19-4.64-11,1-17.63,6.23-7.41,13.33-9.23,23.48-9.87" transform="translate(-546.9 -362.6)"/><path class="cls-2" d="M1119,630.67a116,116,0,0,1-8.6-13.32c-6.25-12-1.09-24,2.68-32.69.21-.48.41-.94.59-1.38a19.24,19.24,0,0,1-11.18,4.44c-6.28.4-12.63-2.15-20-8-7.11-5.69-8.68-14.32-9.71-20,0-.2-.08-.41-.11-.62l-1.42,0c-2.06.08-4,.15-5.94.28-10.15.64-17.25,2.45-23.48,9.88-5.59,6.66-4.43,9.42-.95,17.62,4.43,10.49,11.13,26.32-8.18,48.93-10.36,12.13-15.09,21.77-15.33,31.24-.37,13.8,4.64,24.44,14.85,31.63,10,7,24.74,10.32,41.5,9.27s31.71-6.21,42.11-14.51c10.64-8.51,16.2-19.8,16.57-33.61C1132.67,650,1125.4,639.72,1119,630.67Z" transform="translate(-546.9 -362.6)"/><polygon class="cls-3" points="512.92 238.17 546.62 236.05 546.19 252.6 512.49 254.72 512.92 238.17"/><polygon class="cls-3" points="512.09 270.59 545.79 268.48 545.36 285.02 511.65 287.13 512.09 270.59"/><polygon class="cls-3" points="515.38 301.61 541.48 299.98 541.23 309.41 515.13 311.04 515.38 301.61"/><polygon class="cls-3" points="545.16 223.59 515.05 225.47 524.3 57.32 544.7 56.04 545.16 223.59"/><ellipse class="cls-3" cx="1116.53" cy="653.02" rx="11.52" ry="10.54" transform="translate(-675.46 640.92) rotate(-46.04)"/><ellipse class="cls-3" cx="1106.97" cy="681.99" rx="9.21" ry="8.43" transform="translate(-699.23 642.9) rotate(-46.04)"/><path class="cls-3" d="M1107.61,435.53c-.11,4.42.68,7.94,4.65,7.7s5-3.89,5.08-8.31-.67-7.94-4.65-7.69S1107.74,431.11,1107.61,435.53Z" transform="translate(-546.9 -362.6)"/><polygon class="cls-3" points="563.58 75.09 553.06 75.75 553.18 71.07 563.7 70.41 563.58 75.09"/><path class="cls-3" d="M1108.22,412.22c-.11,4.42.68,7.94,4.67,7.69s5-3.88,5.07-8.3-.68-7.94-4.66-7.68S1108.34,407.81,1108.22,412.22Z" transform="translate(-546.9 -362.6)"/><polygon class="cls-3" points="564.18 51.79 553.67 52.45 553.79 47.76 564.31 47.1 564.18 51.79"/><path class="cls-3" d="M1108.83,388.92c-.11,4.41.69,7.94,4.66,7.68s5-3.87,5.08-8.29-.69-7.94-4.66-7.69S1109,384.5,1108.83,388.92Z" transform="translate(-546.9 -362.6)"/><polygon class="cls-3" points="564.8 28.49 554.28 29.14 554.41 24.46 564.92 23.8 564.8 28.49"/><path class="cls-3" d="M1054.25,438.88c-.11,4.41-1.09,8-5.07,8.29s-4.77-3.27-4.66-7.69,1.1-8.05,5.08-8.29S1054.37,434.46,1054.25,438.88Z" transform="translate(-546.9 -362.6)"/><polygon class="cls-3" points="504.49 74.12 515.01 73.48 514.88 78.16 504.36 78.8 504.49 74.12"/><path class="cls-3" d="M1054.87,415.57c-.12,4.42-1.09,8.05-5.08,8.3s-4.77-3.27-4.65-7.69,1.1-8,5.07-8.3S1055,411.15,1054.87,415.57Z" transform="translate(-546.9 -362.6)"/><polygon class="cls-3" points="505.1 50.8 515.61 50.15 515.49 54.83 504.98 55.48 505.1 50.8"/><path class="cls-3" d="M1055.47,392.27c-.1,4.41-1.08,8-5.07,8.29s-4.76-3.27-4.65-7.69,1.1-8.06,5.08-8.3S1055.59,387.85,1055.47,392.27Z" transform="translate(-546.9 -362.6)"/><polygon class="cls-3" points="505.71 27.51 516.23 26.85 516.1 31.54 505.58 32.2 505.71 27.51"/><path class="cls-3" d="M1104.19,417.11c-.94,36.41-1.51,46.42-24,47.83s-22.51-8.56-21.56-45c1.28-48.75-5.8-55.22,24.23-57.1S1105.47,368.34,1104.19,417.11Z" transform="translate(-546.9 -362.6)"/><ellipse class="cls-4" cx="1069.93" cy="391.36" rx="6.41" ry="5.87" transform="translate(-501.35 527.32) rotate(-46.04)"/><path class="cls-4" d="M1065.09,410.69a5.89,5.89,0,1,1-.23,8.69A6.15,6.15,0,0,1,1065.09,410.69Z" transform="translate(-546.9 -362.6)"/><path class="cls-4" d="M1064.48,434.1a5.89,5.89,0,1,1-.22,8.69A6.16,6.16,0,0,1,1064.48,434.1Z" transform="translate(-546.9 -362.6)"/><path class="cls-4" d="M1090.25,385.75a5.89,5.89,0,1,1-.23,8.68A6.14,6.14,0,0,1,1090.25,385.75Z" transform="translate(-546.9 -362.6)"/><path class="cls-4" d="M1100,412.84a6.81,6.81,0,0,1-6.29,6.52,5.51,5.51,0,0,1-6-5.75,6.87,6.87,0,0,1,6.3-6.54A5.54,5.54,0,0,1,1100,412.84Z" transform="translate(-546.9 -362.6)"/><path class="cls-4" d="M1089,432.55a5.9,5.9,0,1,1-.22,8.7A6.18,6.18,0,0,1,1089,432.55Z" transform="translate(-546.9 -362.6)"/></svg>